<svg width="100%" height="auto" viewBox="0 0 500 855" fill="none" xmlns="http://www.w3.org/2000/svg">
<path d="M75 399H425V855L250 644.48L75 855V399Z" fill="#FCFF6B"/>
<path d="M115 375H105V385V735V762.566L122.674 741.412L250 589.013L377.326 741.412L395 762.566V735V385V375H385H115Z" fill="#FCFF6B" stroke="#5FE2FF" stroke-width="20"/>
<circle cx="250" cy="250" r="240" fill="#FCFF6B" stroke="#5FE2FF" stroke-width="20"/>
<path d="M146.223 384.754C173.442 400.383 187.383 362.058 187.383 362.058C187.383 362.058 149.616 348.661 146.223 384.754Z" fill="#D9C7FF"/>
<path d="M146.285 386.087C138.377 416.461 179.021 419.816 179.021 419.816C179.021 419.816 181.999 379.854 146.285 386.087Z" fill="#D9C7FF"/>
<path d="M146.471 386.315C116.065 378.527 132.809 341.341 132.809 341.341C132.809 341.341 169.216 358.085 146.471 386.315Z" fill="#D9C7FF"/>
<path d="M143.837 385.367C123.589 409.35 97.401 378.088 97.401 378.088C97.401 378.088 128.324 352.601 143.837 385.367Z" fill="#D9C7FF"/>
<path d="M145.535 386.6C114.207 388.539 123.669 428.208 123.669 428.208C123.669 428.208 162.573 418.6 145.535 386.6Z" fill="#D9C7FF"/>
<path d="M363.344 391.318C375.504 362.382 335.755 353.263 335.755 353.263C335.755 353.263 327.107 392.392 363.344 391.318Z" fill="#FFA927"/>
<path d="M364.658 391.092C395.775 395.202 394.104 354.455 394.104 354.455C394.104 354.455 354.079 356.417 364.658 391.092Z" fill="#FFA927"/>
<path d="M364.862 390.879C360.875 422.012 321.911 409.972 321.911 409.972C321.911 409.972 334.047 371.781 364.862 390.879Z" fill="#FFA927"/>
<path d="M364.245 393.61C390.537 410.753 362.735 440.589 362.735 440.589C362.735 440.589 333.637 413.037 364.245 393.61Z" fill="#FFA927"/>
<path d="M365.261 391.773C371.04 422.624 409.243 408.353 409.243 408.353C409.243 408.353 394.92 370.927 365.261 391.773Z" fill="#FFA927"/>
<path d="M425 200C441.569 200 455 213.431 455 230L455 270C455 286.569 441.569 300 425 300V300L425 200V200Z" fill="#A1A1A1"/>
<path d="M75 300C58.4315 300 45 286.569 45 270V230C45 213.431 58.4315 200 75 200V200L75 300V300Z" fill="#A1A1A1"/>
<ellipse cx="250" cy="250" rx="185" ry="160" fill="#DCDCDC"/>
<path d="M150 135C150 107.386 172.386 85 200 85H300C327.614 85 350 107.386 350 135V173H150V135Z" fill="#A1A1A1"/>
<ellipse cx="250" cy="250" rx="150" ry="100" fill="#1D1D1D"/>
<path d="M225 367.5C236.875 382.812 262.188 383.438 275 367.5" stroke="black" stroke-width="5"/>
<path d="M173.143 430.612C204.52 429.844 196.545 389.85 196.545 389.85C196.545 389.85 157.31 398 173.143 430.612Z" fill="#FE7D94"/>
<path d="M173.888 431.719C182.893 461.786 219.375 443.56 219.375 443.56C219.375 443.56 201.18 407.856 173.888 431.719Z" fill="#FE7D94"/>
<path d="M174.165 431.817C144.133 440.942 139.145 400.466 139.145 400.466C139.145 400.466 178.955 395.882 174.165 431.817Z" fill="#FE7D94"/>
<path d="M171.421 432.374C166.562 463.383 127.951 450.253 127.951 450.253C127.951 450.253 141.156 412.418 171.421 432.374Z" fill="#FE7D94"/>
<path d="M173.513 432.547C147.741 450.464 176.418 479.46 176.418 479.46C176.418 479.46 204.685 451.056 173.513 432.547Z" fill="#FE7D94"/>
<path d="M324.285 432.792C339.81 460.071 371.269 434.12 371.269 434.12C371.269 434.12 345.523 403.412 324.285 432.792Z" fill="#5CFFE2"/>
<path d="M323.663 433.972C301.436 456.134 334.757 479.648 334.757 479.648C334.757 479.648 357.6 446.723 323.663 433.972Z" fill="#5CFFE2"/>
<path d="M323.707 434.264C301.458 412.125 334.754 388.577 334.754 388.577C334.754 388.577 357.631 421.478 323.707 434.264Z" fill="#5CFFE2"/>
<path d="M321.919 432.11C292.302 442.502 285.598 402.276 285.598 402.276C285.598 402.276 325.177 396.004 321.919 432.11Z" fill="#5CFFE2"/>
<path d="M322.756 434.034C294.777 419.809 282.802 458.793 282.802 458.793C282.802 458.793 321.201 470.253 322.756 434.034Z" fill="#5CFFE2"/>
<path d="M222.147 454.213C199.268 432.725 176.86 466.798 176.86 466.798C176.86 466.798 210.516 488.55 222.147 454.213Z" fill="#FEBB7D"/>
<path d="M222.393 452.902C237.097 425.172 198.325 412.529 198.325 412.529C198.325 412.529 186.206 450.725 222.393 452.902Z" fill="#FEBB7D"/>
<path d="M222.264 452.637C250.052 467.231 225.18 499.55 225.18 499.55C225.18 499.55 193.619 474.857 222.264 452.637Z" fill="#FEBB7D"/>
<path d="M224.609 454.168C249.845 435.504 268.112 471.966 268.112 471.966C268.112 471.966 232.142 489.629 224.609 454.168Z" fill="#FEBB7D"/>
<path d="M223.242 452.576C254.171 457.919 254.119 417.137 254.119 417.137C254.119 417.137 214.048 417.508 223.242 452.576Z" fill="#FEBB7D"/>
<path d="M274.223 451.754C301.442 467.383 315.383 429.058 315.383 429.058C315.383 429.058 277.616 415.661 274.223 451.754Z" fill="#FFDFDF"/>
<path d="M274.285 453.087C266.377 483.461 307.021 486.816 307.021 486.816C307.021 486.816 309.999 446.854 274.285 453.087Z" fill="#FFDFDF"/>
<path d="M274.471 453.315C244.065 445.527 260.809 408.341 260.809 408.341C260.809 408.341 297.216 425.085 274.471 453.315Z" fill="#FFDFDF"/>
<path d="M271.837 452.367C251.589 476.35 225.401 445.088 225.401 445.088C225.401 445.088 256.324 419.601 271.837 452.367Z" fill="#FFDFDF"/>
<path d="M273.534 453.6C242.207 455.539 251.669 495.208 251.669 495.208C251.669 495.208 290.573 485.6 273.534 453.6Z" fill="#FFDFDF"/>
<path d="M118.5 134H381C400.366 153.231 407.257 162.86 416 179H84C90.6725 160.473 96.8442 150.426 118.5 134Z" fill="white"/>
<path d="M132.891 135.373L419 184.5C427 200 434.5 215 434.5 235L88.9999 173.313C99.1986 156.301 107.398 147.548 132.891 135.373Z" fill="white"/>
<path d="M500 250C500 388.071 388.071 500 250 500C111.929 500 0 388.071 0 250C0 111.929 111.929 0 250 0C388.071 0 500 111.929 500 250ZM25 250C25 374.264 125.736 475 250 475C374.264 475 475 374.264 475 250C475 125.736 374.264 25 250 25C125.736 25 25 125.736 25 250Z" fill="#5FE2FF"/>
</svg>
