<svg width="100%" height="auto" viewBox="0 0 500 855" fill="none" xmlns="http://www.w3.org/2000/svg">
<path d="M75 399H425V855L250 644.48L75 855V399Z" fill="white"/>
<path d="M115 375H105V385V735V762.566L122.674 741.412L250 589.013L377.326 741.412L395 762.566V735V385V375H385H115Z" fill="white" stroke="#DCDCDC" stroke-width="20"/>
<circle cx="250" cy="250" r="240" fill="white" stroke="#DCDCDC" stroke-width="20"/>
<path d="M425 200C441.569 200 455 213.431 455 230L455 270C455 286.569 441.569 300 425 300V300L425 200V200Z" fill="#A1A1A1"/>
<path d="M75 300C58.4315 300 45 286.569 45 270V230C45 213.431 58.4315 200 75 200V200L75 300V300Z" fill="#A1A1A1"/>
<ellipse cx="250" cy="250" rx="185" ry="160" fill="#DCDCDC"/>
<path d="M150 135C150 107.386 172.386 85 200 85H300C327.614 85 350 107.386 350 135V173H150V135Z" fill="#A1A1A1"/>
<ellipse cx="250" cy="250" rx="150" ry="100" fill="#1D1D1D"/>
<path d="M177.705 246.984C174.663 252.246 170.702 256.825 165.823 260.721C160.944 264.618 155.555 267.67 149.657 269.878C143.777 272.026 137.7 273.268 131.426 273.603C125.151 273.938 119.156 273.193 113.441 271.369C107.902 269.602 103.216 267.198 99.3826 264.156C95.6079 261.134 92.7364 257.621 90.7681 253.616C88.8587 249.631 87.9999 245.202 88.1916 240.329C88.3244 235.437 89.7541 230.246 92.4807 224.753L111.152 227.888C108.202 234.283 107.513 240.003 109.084 245.049C110.673 250.036 115.092 253.686 122.339 255.998C126.11 257.202 129.754 257.683 133.272 257.442C136.809 257.143 140.192 256.307 143.421 254.936C146.65 253.564 149.589 251.678 152.238 249.277C154.887 246.876 157.101 244.11 158.88 240.977C163.052 233.803 164.263 227.568 162.513 222.27C160.821 216.991 156.735 213.317 150.254 211.249C146.011 209.895 141.634 209.472 137.122 209.98C132.67 210.506 128.37 212.283 124.223 215.309L105.928 209.471L139.496 150.36L211.704 173.403L203.072 188.859L149.07 171.626L133.085 199.44C142.313 194.529 152.112 193.728 162.482 197.038C167.431 198.617 171.629 201.028 175.074 204.27C178.538 207.453 181.031 211.235 182.554 215.616C184.096 219.939 184.501 224.775 183.768 230.124C183.034 235.473 181.013 241.094 177.705 246.984ZM200.385 233.285C204.557 226.111 209.352 219.429 214.768 213.237C220.185 207.045 226.125 201.962 232.587 197.986C239.05 194.011 245.93 191.37 253.229 190.064C260.605 188.717 268.271 189.313 276.225 191.851C284.18 194.39 290.096 198.128 293.973 203.066C297.87 207.945 300.122 213.501 300.73 219.733C301.338 225.964 300.525 232.684 298.289 239.891C296.054 247.098 292.88 254.298 288.767 261.49C284.713 268.701 279.948 275.393 274.472 281.566C269.074 287.699 263.155 292.822 256.714 296.934C250.35 301.006 243.451 303.705 236.015 305.033C228.658 306.321 220.914 305.667 212.782 303.072C204.71 300.496 198.755 296.778 194.918 291.918C191.099 286.998 188.895 281.393 188.306 275.103C187.794 268.772 188.676 262.042 190.951 254.912C193.245 247.724 196.39 240.515 200.385 233.285ZM218.68 239.123C215.89 244.206 213.48 249.215 211.45 254.15L280.833 226.237C280.874 221.836 279.935 217.965 278.014 214.626C276.093 211.286 272.599 208.808 267.532 207.19C259.106 204.502 250.646 205.989 242.152 211.653C233.716 217.336 225.892 226.493 218.68 239.123ZM221.68 287.701C226.924 289.375 231.836 289.546 236.416 288.216C241.054 286.905 245.436 284.668 249.562 281.505C253.706 278.283 257.519 274.371 261 269.768C264.541 265.185 267.698 260.479 270.472 255.652C273.112 251.041 275.302 246.416 277.042 241.778L208.214 269.478C208.288 273.721 209.284 277.415 211.202 280.559C213.121 283.703 216.613 286.084 221.68 287.701ZM414.867 242.913L279.975 326.268L272.205 315.219L407.414 231.478L414.867 242.913ZM319.704 230.462C321.311 227.664 323.44 225.162 326.092 222.957C328.821 220.712 331.704 219.002 334.74 217.829C337.795 216.597 340.984 215.861 344.306 215.623C347.647 215.326 350.908 215.685 354.09 216.7C357.095 217.659 359.667 219.162 361.805 221.208C363.963 223.195 365.488 225.434 366.381 227.926C367.351 230.378 367.679 233.113 367.366 236.129C367.13 239.105 366.209 241.992 364.602 244.79C362.898 247.688 360.73 250.209 358.098 252.356C355.524 254.521 352.71 256.219 349.654 257.452C346.599 258.684 343.342 259.43 339.884 259.69C336.503 259.909 333.31 259.539 330.305 258.58C327.182 257.584 324.571 256.101 322.472 254.133C320.393 252.106 318.877 249.837 317.925 247.326C317.033 244.834 316.665 242.12 316.823 239.184C317.04 236.266 318 233.359 319.704 230.462ZM333.018 234.516C331.738 236.899 331.484 239.22 332.256 241.479C333.106 243.698 334.798 245.212 337.332 246.021C339.865 246.829 342.534 246.707 345.337 245.654C348.159 244.542 350.21 242.794 351.489 240.411C352.887 238.065 353.141 235.744 352.251 233.448C351.42 231.17 349.737 229.627 347.204 228.818C344.67 228.01 342.022 228.171 339.259 229.301C336.496 230.432 334.415 232.171 333.018 234.516ZM322.381 313.313C324.007 310.456 326.146 307.925 328.797 305.72C331.508 303.533 334.381 301.853 337.417 300.68C340.472 299.448 343.661 298.712 346.983 298.474C350.324 298.177 353.585 298.536 356.767 299.551C359.772 300.51 362.344 302.013 364.483 304.059C366.64 306.046 368.165 308.285 369.058 310.777C370.028 313.229 370.366 315.934 370.072 318.892C369.836 321.868 368.905 324.784 367.279 327.641C365.576 330.539 363.378 333.051 360.687 335.178C358.054 337.325 355.21 339.014 352.155 340.246C349.1 341.479 345.852 342.195 342.412 342.396C339.013 342.674 335.81 342.334 332.805 341.375C329.682 340.378 327.081 338.867 325.001 336.839C322.903 334.871 321.377 332.632 320.426 330.121C319.533 327.628 319.195 324.924 319.412 322.006C319.688 319.108 320.678 316.21 322.381 313.313ZM335.695 317.367C334.297 319.713 334.014 322.024 334.845 324.302C335.754 326.54 337.475 328.063 340.009 328.872C342.543 329.68 345.181 329.549 347.926 328.477C350.689 327.346 352.769 325.608 354.167 323.262C355.447 320.879 355.671 318.548 354.84 316.27C354.068 314.011 352.415 312.478 349.881 311.669C347.347 310.861 344.67 311.012 341.848 312.124C339.026 313.236 336.975 314.984 335.695 317.367Z" fill="#00C236"/>
</svg>
