<svg width="100%" height="auto" viewBox="0 0 500 855" fill="none" xmlns="http://www.w3.org/2000/svg">
<path d="M75 399H425V855L250 644.48L75 855V399Z" fill="#FCFF6B"/>
<path d="M115 375H105V385V735V762.566L122.674 741.412L250 589.013L377.326 741.412L395 762.566V735V385V375H385H115Z" fill="#FCFF6B" stroke="#FFD25F" stroke-width="20"/>
<circle cx="250" cy="250" r="240" fill="#FCFF6B" stroke="#FFD25F" stroke-width="20"/>
<path d="M425 200C441.569 200 455 213.431 455 230L455 270C455 286.569 441.569 300 425 300V300L425 200V200Z" fill="#A1A1A1"/>
<path d="M75 300C58.4315 300 45 286.569 45 270V230C45 213.431 58.4315 200 75 200V200L75 300V300Z" fill="#A1A1A1"/>
<ellipse cx="250" cy="250" rx="185" ry="160" fill="#DCDCDC"/>
<path d="M150 135C150 107.386 172.386 85 200 85H300C327.614 85 350 107.386 350 135V173H150V135Z" fill="#A1A1A1"/>
<ellipse cx="250" cy="250" rx="150" ry="100" fill="#1D1D1D"/>
<path d="M93.7406 262.843L38.3251 245.158L47.0181 229.819L65.6667 235.77L100.559 174.647C98.165 177.064 95.3437 178.988 92.0956 180.418C88.8474 181.849 85.4175 182.832 81.8058 183.367C78.2128 183.844 74.4287 183.902 70.4534 183.542C66.5559 183.142 62.7216 182.341 58.9506 181.137L68.5896 164.055C72.5962 165.334 76.8392 165.974 81.3184 165.975C85.8754 165.936 90.354 165.125 94.7542 163.543C99.2134 161.98 103.476 159.607 107.543 156.425C111.629 153.185 115.202 148.904 118.263 143.584L136.558 149.422L83.9618 241.609L102.434 247.504L93.7406 262.843ZM151.4 217.652C155.572 210.479 160.367 203.796 165.783 197.605C171.2 191.413 177.14 186.329 183.602 182.354C190.065 178.378 196.945 175.737 204.244 174.431C211.62 173.084 219.286 173.68 227.24 176.219C235.195 178.757 241.111 182.496 244.988 187.434C248.885 192.313 251.137 197.868 251.745 204.1C252.353 210.332 251.54 217.051 249.304 224.259C247.069 231.466 243.895 238.665 239.782 245.858C235.728 253.069 230.963 259.761 225.487 265.934C220.089 272.067 214.17 277.189 207.729 281.301C201.365 285.373 194.466 288.073 187.03 289.401C179.673 290.688 171.929 290.035 163.797 287.44C155.725 284.864 149.77 281.145 145.933 276.285C142.114 271.366 139.91 265.761 139.321 259.47C138.809 253.139 139.691 246.409 141.966 239.28C144.26 232.091 147.405 224.882 151.4 217.652ZM169.695 223.491C166.905 228.573 164.495 233.582 162.465 238.518L231.848 210.605C231.889 206.203 230.95 202.333 229.029 198.993C227.108 195.653 223.614 193.175 218.547 191.558C210.121 188.869 201.661 190.357 193.167 196.021C184.731 201.704 176.907 210.86 169.695 223.491ZM172.695 272.069C177.939 273.742 182.851 273.914 187.431 272.584C192.069 271.272 196.451 269.035 200.577 265.872C204.721 262.65 208.534 258.738 212.015 254.136C215.556 249.553 218.713 244.847 221.487 240.019C224.127 235.408 226.317 230.783 228.057 226.145L159.229 253.845C159.303 258.089 160.299 261.783 162.217 264.927C164.136 268.071 167.628 270.452 172.695 272.069ZM250.211 249.186C254.383 242.012 259.178 235.33 264.595 229.138C270.011 222.946 275.951 217.863 282.413 213.887C288.876 209.912 295.756 207.271 303.055 205.964C310.431 204.618 318.097 205.214 326.051 207.752C334.006 210.291 339.922 214.029 343.799 218.967C347.696 223.846 349.948 229.402 350.556 235.633C351.164 241.865 350.351 248.585 348.115 255.792C345.88 262.999 342.706 270.199 338.593 277.391C334.539 284.602 329.774 291.294 324.298 297.467C318.9 303.6 312.981 308.722 306.54 312.835C300.176 316.906 293.277 319.606 285.842 320.934C278.484 322.222 270.74 321.568 262.608 318.973C254.536 316.397 248.581 312.679 244.744 307.819C240.925 302.899 238.721 297.294 238.132 291.004C237.62 284.673 238.502 277.943 240.777 270.813C243.071 263.625 246.216 256.416 250.211 249.186ZM268.506 255.024C265.716 260.107 263.306 265.116 261.276 270.051L330.659 242.138C330.7 237.737 329.761 233.866 327.84 230.527C325.919 227.187 322.425 224.709 317.358 223.091C308.932 220.402 300.472 221.89 291.978 227.554C283.542 233.237 275.718 242.394 268.506 255.024ZM271.507 303.602C276.751 305.276 281.662 305.447 286.242 304.117C290.88 302.806 295.262 300.569 299.388 297.405C303.532 294.184 307.345 290.272 310.827 285.669C314.367 281.086 317.524 276.38 320.298 271.553C322.938 266.942 325.128 262.317 326.868 257.678L258.04 285.379C258.114 289.622 259.11 293.316 261.028 296.46C262.947 299.604 266.439 301.985 271.507 303.602ZM464.693 258.814L329.801 342.169L322.031 331.12L457.24 247.379L464.693 258.814ZM369.53 246.363C371.137 243.565 373.266 241.063 375.918 238.858C378.647 236.613 381.53 234.903 384.566 233.73C387.621 232.497 390.81 231.762 394.132 231.524C397.473 231.227 400.734 231.586 403.916 232.601C406.921 233.56 409.493 235.063 411.631 237.109C413.789 239.096 415.314 241.335 416.207 243.827C417.177 246.279 417.505 249.014 417.192 252.03C416.956 255.006 416.035 257.893 414.428 260.691C412.724 263.588 410.556 266.11 407.924 268.256C405.35 270.422 402.536 272.12 399.48 273.353C396.425 274.585 393.168 275.331 389.71 275.591C386.329 275.81 383.136 275.44 380.131 274.481C377.008 273.485 374.397 272.002 372.298 270.034C370.219 268.007 368.703 265.738 367.751 263.227C366.859 260.735 366.491 258.021 366.649 255.085C366.866 252.167 367.826 249.26 369.53 246.363ZM382.844 250.417C381.564 252.8 381.31 255.121 382.082 257.38C382.932 259.599 384.624 261.113 387.158 261.922C389.691 262.73 392.36 262.608 395.163 261.555C397.985 260.443 400.036 258.695 401.315 256.312C402.713 253.966 402.967 251.645 402.077 249.349C401.246 247.071 399.563 245.528 397.03 244.719C394.496 243.91 391.848 244.072 389.085 245.202C386.322 246.333 384.241 248.071 382.844 250.417ZM372.207 329.214C373.833 326.357 375.972 323.826 378.623 321.621C381.334 319.434 384.207 317.754 387.243 316.581C390.298 315.348 393.487 314.613 396.809 314.375C400.15 314.078 403.411 314.437 406.593 315.452C409.598 316.411 412.17 317.914 414.309 319.96C416.466 321.947 417.991 324.186 418.884 326.678C419.854 329.13 420.192 331.835 419.898 334.792C419.662 337.769 418.731 340.685 417.105 343.542C415.402 346.439 413.204 348.952 410.513 351.079C407.88 353.226 405.036 354.915 401.981 356.147C398.926 357.38 395.678 358.096 392.238 358.297C388.839 358.575 385.636 358.235 382.631 357.276C379.508 356.279 376.907 354.767 374.827 352.74C372.729 350.772 371.203 348.533 370.252 346.022C369.359 343.529 369.021 340.825 369.238 337.907C369.514 335.009 370.504 332.111 372.207 329.214ZM385.521 333.268C384.123 335.614 383.84 337.925 384.671 340.203C385.58 342.441 387.301 343.964 389.835 344.773C392.369 345.581 395.008 345.449 397.752 344.378C400.515 343.247 402.595 341.509 403.993 339.163C405.273 336.78 405.497 334.449 404.666 332.171C403.894 329.912 402.241 328.379 399.707 327.57C397.173 326.761 394.496 326.913 391.674 328.025C388.852 329.137 386.801 330.885 385.521 333.268Z" fill="#00C236"/>
</svg>
