<svg width="100%" height="auto" viewBox="0 0 500 855" fill="none" xmlns="http://www.w3.org/2000/svg">
<path d="M75 399H425V855L250 644.48L75 855V399Z" fill="#444444"/>
<path d="M115 375H105V385V735V762.566L122.674 741.412L250 589.014L377.326 741.412L395 762.566V735V385V375H385H115Z" fill="#444444" stroke="#7E0000" stroke-width="20"/>
<circle cx="250" cy="250" r="240" fill="#444444" stroke="#7E0000" stroke-width="20"/>
<rect width="71.1215" height="215.437" transform="matrix(0.924875 -0.38027 0.306673 0.951815 84 69.9529)" fill="#DCDCDC"/>
<rect width="71.1215" height="244.956" transform="matrix(0.924875 0.38027 -0.306673 0.951815 348.323 35)" fill="#DCDCDC"/>
<circle cx="309" cy="280" r="58" fill="#848181"/>
<circle cx="191" cy="280" r="58" fill="#848181"/>
<path d="M283 343C283 348.523 278.523 353 273 353C267.477 353 263 348.523 263 343C263 337.477 267.477 333 273 333C278.523 333 283 337.477 283 343ZM266 343C266 346.866 269.134 350 273 350C276.866 350 280 346.866 280 343C280 339.134 276.866 336 273 336C269.134 336 266 339.134 266 343Z" fill="#848181"/>
<path d="M262 355C262 360.523 257.523 365 252 365C246.477 365 242 360.523 242 355C242 349.477 246.477 345 252 345C257.523 345 262 349.477 262 355ZM245 355C245 358.866 248.134 362 252 362C255.866 362 259 358.866 259 355C259 351.134 255.866 348 252 348C248.134 348 245 351.134 245 355Z" fill="#848181"/>
<path d="M238 355C238 360.523 233.523 365 228 365C222.477 365 218 360.523 218 355C218 349.477 222.477 345 228 345C233.523 345 238 349.477 238 355ZM221 355C221 358.866 224.134 362 228 362C231.866 362 235 358.866 235 355C235 351.134 231.866 348 228 348C224.134 348 221 351.134 221 355Z" fill="#848181"/>
<line x1="271.002" y1="346.29" x2="255.002" y2="353.29" stroke="#848181" stroke-width="5"/>
<line x1="223.454" y1="333.522" x2="226.791" y2="350.665" stroke="#848181" stroke-width="5"/>
<line x1="247.918" y1="355.002" x2="230.638" y2="352.474" stroke="#848181" stroke-width="5"/>
<circle cx="304" cy="290" r="55" fill="#DCDCDC"/>
<circle cx="194" cy="290" r="55" fill="#DCDCDC"/>
<path d="M500 250C500 388.071 388.071 500 250 500C111.929 500 0 388.071 0 250C0 111.929 111.929 0 250 0C388.071 0 500 111.929 500 250ZM25 250C25 374.264 125.736 475 250 475C374.264 475 475 374.264 475 250C475 125.736 374.264 25 250 25C125.736 25 25 125.736 25 250Z" fill="#7E0000"/>
</svg>
