<svg width="100%" height="auto" viewBox="0 0 500 855" fill="none" xmlns="http://www.w3.org/2000/svg">
<path d="M75 399H425V855L250 644.48L75 855V399Z" fill="#96D9FF"/>
<path d="M115 375H105V385V735V762.566L122.674 741.412L250 589.013L377.326 741.412L395 762.566V735V385V375H385H115Z" fill="#96D9FF" stroke="#5FC5FF" stroke-width="20"/>
<circle cx="250" cy="250" r="240" fill="#96D9FF" stroke="#5FC5FF" stroke-width="20"/>
<path d="M425 200C441.569 200 455 213.431 455 230L455 270C455 286.569 441.569 300 425 300V300L425 200V200Z" fill="#A1A1A1"/>
<path d="M75 300C58.4315 300 45 286.569 45 270V230C45 213.431 58.4315 200 75 200V200L75 300V300Z" fill="#A1A1A1"/>
<ellipse cx="250" cy="250" rx="185" ry="160" fill="#DCDCDC"/>
<path d="M150 135C150 107.386 172.386 85 200 85H300C327.614 85 350 107.386 350 135V173H150V135Z" fill="#A1A1A1"/>
<ellipse cx="250" cy="250" rx="150" ry="100" fill="#1D1D1D"/>
<circle cx="250" cy="350" r="40" fill="#5FC5FF"/>
<circle cx="250" cy="350" r="30" fill="#96D9FF"/>
<circle cx="250" cy="350" r="13" fill="#5FC5FF"/>
<path d="M262 375C262 390.464 256.851 403 250.5 403C244.149 403 239 390.464 239 375C239 359.536 244.149 347 250.5 347C256.851 347 262 359.536 262 375ZM242.312 375C242.312 386.011 245.978 394.936 250.5 394.936C255.022 394.936 258.688 386.011 258.688 375C258.688 363.989 255.022 355.064 250.5 355.064C245.978 355.064 242.312 363.989 242.312 375Z" fill="#2EB3FE"/>
<rect x="248" y="341" width="5" height="17" fill="#5FC5FF"/>
</svg>