<svg width="500" height="855" viewBox="0 0 500 855" fill="none" xmlns="http://www.w3.org/2000/svg">
<path d="M75 403H425V855L250 646.327L75 855V403Z" fill="white"/>
<mask id="mask0_318_1301" style="mask-type:alpha" maskUnits="userSpaceOnUse" x="74" y="398" width="351" height="457">
<path d="M74.9998 399H425V855L250 644.48L74.9998 855V399Z" fill="white"/>
</mask>
<g mask="url(#mask0_318_1301)">
<rect x="98.5902" y="404.043" width="555.343" height="40" transform="rotate(49.947 98.5902 404.043)" fill="#FEFFE1"/>
<rect x="69.0469" y="430.7" width="290.452" height="40" transform="rotate(49.947 69.0469 430.7)" fill="#E7F6FF"/>
<rect x="351.085" y="459.685" width="167.36" height="40" transform="rotate(49.947 351.085 459.685)" fill="#E7F6FF"/>
<rect x="72.9536" y="742.907" width="83.3999" height="40" transform="rotate(49.947 72.9536 742.907)" fill="#E7F6FF"/>
<rect x="71.072" y="493.762" width="245.79" height="40" transform="rotate(49.947 71.072 493.762)" fill="white"/>
<rect x="308.056" y="470.154" width="232.08" height="40" transform="rotate(49.947 308.056 470.154)" fill="white"/>
<rect x="71.9155" y="803.515" width="42.2045" height="40" transform="rotate(49.947 71.9155 803.515)" fill="white"/>
<rect x="73.3673" y="558.524" width="206.472" height="40" transform="rotate(49.947 73.3673 558.524)" fill="#CCFFDA"/>
<rect x="255.782" y="470.006" width="312.858" height="40" transform="rotate(49.947 255.782 470.006)" fill="#CCFFDA"/>
<rect x="71.9325" y="618.66" width="168.474" height="40" transform="rotate(49.947 71.9325 618.66)" fill="#F0E8FF"/>
<rect x="423.489" y="422.629" width="55.0128" height="40" transform="rotate(49.947 423.489 422.629)" fill="#F0E8FF"/>
<rect x="193.618" y="458" width="413.648" height="40" transform="rotate(49.947 193.618 458)" fill="#F0E8FF"/>
<path d="M71.0753 678.673L152.742 775.817L122.124 801.557L40.4573 704.413L71.0753 678.673Z" fill="#FEFFE1"/>
<rect x="391.244" y="446.208" width="103.692" height="40" transform="rotate(49.947 391.244 446.208)" fill="#FEFFE1"/>
</g>
<path d="M115 375H105V385V735V762.566L122.674 741.411L250 589.013L377.326 741.411L395 762.566V735V385V375H385H115Z" stroke="#CCFFDA" stroke-width="20"/>
<circle cx="250" cy="250" r="240" fill="white" stroke="#CCFFDA" stroke-width="20"/>
<mask id="mask1_318_1301" style="mask-type:alpha" maskUnits="userSpaceOnUse" x="-1" y="0" width="501" height="500">
<circle cx="250" cy="250" r="240" fill="white" stroke="#CCFFDA" stroke-width="20"/>
</mask>
<g mask="url(#mask1_318_1301)">
<path d="M472.163 309.528C459.592 356.445 432.49 398.177 394.743 428.744L250 250L472.163 309.528Z" fill="#CCFFDA"/>
<path d="M27.8368 190.472C40.408 143.555 67.5091 101.823 105.256 71.2564L250 250L27.8368 190.472Z" fill="#CCFFDA"/>
<path d="M394.743 428.744C356.996 459.31 310.542 477.143 262.037 479.685L250 250L394.743 428.744Z" fill="white"/>
<path d="M105.256 71.2563C143.003 40.6895 189.458 22.8571 237.962 20.3151L250 250L105.256 71.2563Z" fill="white"/>
<path d="M262.037 479.685C213.532 482.227 165.468 469.348 124.733 442.894L250 250L262.037 479.685Z" fill="#E7F6FF"/>
<path d="M237.962 20.3151C286.467 17.7731 334.531 30.6519 375.267 57.1057L250 250L237.962 20.3151Z" fill="#E7F6FF"/>
<path d="M124.733 442.894C83.9974 416.44 52.6825 377.77 35.2762 332.425L250 250L124.733 442.894Z" fill="#FEFFE1"/>
<path d="M375.267 57.1058C416.002 83.5596 447.317 122.23 464.723 167.575L250 250L375.267 57.1058Z" fill="#FEFFE1"/>
<path d="M464.724 167.575C482.13 212.92 484.734 262.612 472.163 309.528L250 250L464.724 167.575Z" fill="#F0E8FF"/>
<path d="M35.2769 332.425C17.8705 287.079 15.2663 237.388 27.8375 190.472L250 250L35.2769 332.425Z" fill="#F0E8FF"/>
</g>
<path d="M425 200C441.568 200 455 213.431 455 230L455 270C455 286.569 441.568 300 425 300V300L425 200V200Z" fill="#A1A1A1"/>
<path d="M74.9998 300C58.4312 300 44.9998 286.569 44.9998 270V230C44.9998 213.431 58.4312 200 74.9998 200V200L74.9998 300V300Z" fill="#A1A1A1"/>
<ellipse cx="250" cy="250" rx="185" ry="160" fill="#DCDCDC"/>
<path d="M150 135C150 107.386 172.386 85 200 85H300C327.614 85 350 107.386 350 135V173H150V135Z" fill="#A1A1A1"/>
<ellipse cx="250" cy="250" rx="150" ry="100" fill="#1D1D1D"/>
<path d="M93.7961 262.86L38.3806 245.176L47.0737 229.837L65.7223 235.788L100.615 174.665C98.2206 177.082 95.3993 179.006 92.1511 180.436C88.903 181.867 85.4731 182.85 81.8613 183.385C78.2684 183.861 74.4843 183.92 70.509 183.56C66.6115 183.16 62.7772 182.359 59.0062 181.155L68.6451 164.073C72.6518 165.352 76.8947 165.991 81.374 165.993C85.931 165.954 90.4096 165.143 94.8098 163.561C99.269 161.998 103.532 159.625 107.599 156.443C111.684 153.203 115.258 148.922 118.319 143.601L136.614 149.44L84.0174 241.626L102.489 247.521L93.7961 262.86ZM151.456 217.67C155.628 210.497 160.422 203.814 165.839 197.622C171.256 191.431 177.196 186.347 183.658 182.372C190.12 178.396 197.001 175.755 204.3 174.449C211.676 173.102 219.341 173.698 227.296 176.237C235.25 178.775 241.166 182.513 245.044 187.451C248.94 192.33 251.192 197.886 251.8 204.118C252.409 210.35 251.595 217.069 249.36 224.276C247.125 231.484 243.951 238.683 239.838 245.875C235.784 253.086 231.019 259.778 225.543 265.951C220.145 272.084 214.225 277.207 207.784 281.319C201.421 285.391 194.521 288.091 187.086 289.418C179.728 290.706 171.984 290.052 163.853 287.457C155.781 284.881 149.826 281.163 145.988 276.303C142.17 271.384 139.966 265.779 139.376 259.488C138.865 253.157 139.747 246.427 142.022 239.297C144.316 232.109 147.461 224.9 151.456 217.67ZM169.751 223.509C166.96 228.591 164.55 233.6 162.521 238.535L231.903 210.623C231.945 206.221 231.005 202.351 229.084 199.011C227.164 195.671 223.67 193.193 218.603 191.576C210.177 188.887 201.717 190.374 193.222 196.038C184.787 201.721 176.963 210.878 169.751 223.509ZM172.751 272.086C177.995 273.76 182.907 273.932 187.486 272.601C192.125 271.29 196.507 269.053 200.632 265.89C204.777 262.668 208.59 258.756 212.071 254.154C215.611 249.57 218.768 244.865 221.543 240.037C224.183 235.426 226.373 230.801 228.113 226.163L159.285 253.863C159.359 258.107 160.355 261.801 162.273 264.945C164.191 268.089 167.684 270.469 172.751 272.086ZM250.267 249.204C254.439 242.03 259.233 235.348 264.65 229.156C270.067 222.964 276.007 217.88 282.469 213.905C288.931 209.93 295.812 207.289 303.111 205.982C310.487 204.636 318.152 205.232 326.107 207.77C334.061 210.309 339.977 214.047 343.855 218.985C347.751 223.864 350.003 229.419 350.612 235.651C351.22 241.883 350.406 248.603 348.171 255.81C345.936 263.017 342.762 270.217 338.649 277.409C334.595 284.62 329.83 291.312 324.354 297.485C318.956 303.618 313.036 308.74 306.595 312.852C300.232 316.924 293.332 319.624 285.897 320.952C278.54 322.239 270.795 321.586 262.664 318.991C254.592 316.415 248.637 312.697 244.8 307.836C240.981 302.917 238.777 297.312 238.188 291.021C237.676 284.691 238.558 277.96 240.833 270.831C243.127 263.643 246.272 256.433 250.267 249.204ZM268.562 255.042C265.771 260.124 263.361 265.133 261.332 270.069L330.715 242.156C330.756 237.755 329.816 233.884 327.896 230.544C325.975 227.205 322.481 224.726 317.414 223.109C308.988 220.42 300.528 221.908 292.033 227.572C283.598 233.255 275.774 242.412 268.562 255.042ZM271.562 303.62C276.806 305.293 281.718 305.465 286.297 304.135C290.936 302.824 295.318 300.586 299.444 297.423C303.588 294.201 307.401 290.289 310.882 285.687C314.422 281.104 317.58 276.398 320.354 271.57C322.994 266.959 325.184 262.335 326.924 257.696L258.096 285.397C258.17 289.64 259.166 293.334 261.084 296.478C263.002 299.622 266.495 302.003 271.562 303.62ZM464.748 258.832L329.857 342.187L322.087 331.138L457.296 247.397L464.748 258.832ZM369.586 246.381C371.193 243.583 373.322 241.081 375.973 238.876C378.702 236.63 381.585 234.921 384.621 233.748C387.677 232.515 390.865 231.78 394.187 231.542C397.528 231.245 400.79 231.604 403.971 232.619C406.976 233.578 409.548 235.08 411.687 237.126C413.844 239.113 415.37 241.353 416.262 243.845C417.233 246.297 417.561 249.031 417.248 252.048C417.012 255.024 416.091 257.911 414.484 260.709C412.78 263.606 410.612 266.128 407.979 268.274C405.406 270.439 402.591 272.138 399.536 273.37C396.481 274.603 393.224 275.349 389.765 275.608C386.384 275.828 383.191 275.458 380.186 274.499C377.063 273.503 374.453 272.02 372.354 270.052C370.274 268.025 368.758 265.756 367.807 263.245C366.914 260.753 366.547 258.038 366.705 255.102C366.922 252.185 367.882 249.278 369.586 246.381ZM382.899 250.435C381.619 252.818 381.365 255.139 382.138 257.398C382.988 259.617 384.68 261.131 387.213 261.939C389.747 262.748 392.415 262.626 395.218 261.573C398.04 260.461 400.091 258.713 401.371 256.33C402.769 253.984 403.023 251.663 402.133 249.366C401.301 247.089 399.619 245.545 397.085 244.737C394.552 243.928 391.903 244.089 389.14 245.22C386.377 246.351 384.297 248.089 382.899 250.435ZM372.263 329.232C373.889 326.375 376.027 323.844 378.679 321.638C381.389 319.452 384.263 317.772 387.299 316.599C390.354 315.366 393.543 314.631 396.865 314.393C400.206 314.096 403.467 314.455 406.649 315.47C409.654 316.429 412.226 317.931 414.364 319.977C416.522 321.964 418.047 324.204 418.94 326.696C419.91 329.148 420.248 331.853 419.953 334.81C419.718 337.786 418.787 340.703 417.161 343.56C415.457 346.457 413.26 348.97 410.568 351.097C407.936 353.243 405.092 354.933 402.037 356.165C398.982 357.397 395.734 358.114 392.294 358.315C388.894 358.593 385.692 358.253 382.687 357.294C379.564 356.297 376.963 354.785 374.883 352.758C372.784 350.79 371.259 348.55 370.308 346.039C369.415 343.547 369.077 340.842 369.294 337.925C369.57 335.027 370.559 332.129 372.263 329.232ZM385.577 333.286C384.179 335.631 383.896 337.943 384.727 340.221C385.636 342.459 387.357 343.982 389.891 344.79C392.424 345.599 395.063 345.467 397.807 344.395C400.57 343.265 402.651 341.526 404.048 339.181C405.328 336.798 405.553 334.467 404.722 332.189C403.949 329.93 402.296 328.396 399.763 327.588C397.229 326.779 394.551 326.931 391.729 328.043C388.907 329.155 386.857 330.903 385.577 333.286Z" fill="#00C236"/>
</svg>
