<svg width="100%" height="auto" viewBox="0 0 500 855" fill="none" xmlns="http://www.w3.org/2000/svg">
<path d="M76 399H426V855L251 644.48L76 855V399Z" fill="#FF0000"/>
<path d="M116 375H106V385V735V762.566L123.674 741.412L251 589.014L378.326 741.412L396 762.566V735V385V375H386H116Z" fill="#FF0000" stroke="#00FF47" stroke-width="20"/>
<circle cx="251" cy="250" r="240" fill="#FF0000" stroke="#00FF47" stroke-width="20"/>
<path d="M431.141 268.248C446.529 274.389 454.026 291.842 447.885 307.23L433.058 344.381C426.917 359.77 409.464 367.266 394.076 361.125V361.125L431.141 268.248V268.248Z" fill="#A1A1A1"/>
<path d="M69.0057 231.396C53.6173 225.255 46.121 207.802 52.2622 192.414L67.0882 155.263C73.2294 139.874 90.6826 132.378 106.071 138.519V138.519L69.0057 231.396V231.396Z" fill="#A1A1A1"/>
<ellipse cx="250.073" cy="249.822" rx="185" ry="160" transform="rotate(21.7559 250.073 249.822)" fill="#DCDCDC"/>
<path d="M199.821 105.948C210.057 80.3006 239.145 67.8067 264.792 78.042L357.67 115.107C383.317 125.343 395.811 154.431 385.576 180.078L371.491 215.372L185.736 141.241L199.821 105.948Z" fill="#A1A1A1"/>
<ellipse cx="250.073" cy="249.822" rx="150" ry="100" transform="rotate(21.7559 250.073 249.822)" fill="#1D1D1D"/>
<path d="M198.91 233.123C198.391 234.464 197.742 235.755 196.963 236.998C195.943 238.091 194.819 239.085 193.588 239.982C192.185 240.642 190.718 241.167 189.188 241.557C187.584 241.652 185.971 241.593 184.35 241.379C182.771 240.854 181.244 240.178 179.768 239.351C178.454 238.242 177.247 237.008 176.148 235.648C175.311 234.081 174.626 232.435 174.093 230.711C173.89 228.89 173.863 227.051 174.01 225.196C174.512 223.375 175.188 221.604 176.036 219.885C177.211 218.334 178.532 216.898 179.999 215.577C181.713 214.542 183.522 213.672 185.427 212.969C187.458 212.632 189.517 212.49 191.603 212.542C193.67 212.992 195.689 213.639 197.66 214.482C199.46 215.696 201.14 217.079 202.7 218.631C203.955 220.472 205.032 222.427 205.93 224.497C206.429 226.727 206.714 228.998 206.784 231.31C206.415 233.622 205.826 235.891 205.018 238.119C203.791 240.179 202.372 242.116 200.761 243.93C198.815 245.426 196.733 246.731 194.515 247.847C192.1 248.533 189.628 248.988 187.098 249.21C184.544 248.95 182.023 248.448 179.536 247.705C177.208 246.494 175.004 245.066 172.923 243.422C171.17 241.394 169.616 239.207 168.261 236.862C167.362 234.277 166.711 231.616 166.31 228.88C166.43 226.089 166.816 223.32 167.466 220.574C168.631 217.973 170.039 215.493 171.689 213.135C173.773 211.108 176.041 209.288 178.492 207.673C181.229 206.537 184.062 205.666 186.991 205.058C190.011 205.011 193.022 205.251 196.025 205.777C198.901 206.868 201.662 208.227 204.307 209.853C206.62 211.966 208.722 214.289 210.614 216.822C212.009 219.69 213.126 222.678 213.965 225.785C214.208 229.022 214.143 232.267 213.77 235.52C212.785 238.673 211.506 241.717 209.933 244.653C207.819 247.264 205.468 249.662 202.879 251.848C199.902 253.523 196.781 254.908 193.515 256.003C190.074 256.469 186.605 256.607 183.11 256.418C179.684 255.568 176.356 254.399 173.125 252.91C170.208 250.825 167.503 248.474 165.01 245.858C163.037 242.796 161.363 239.564 159.989 236.16C159.273 232.531 158.903 228.853 158.881 225.126C159.563 221.432 160.591 217.823 161.965 214.297C163.991 211.068 166.311 208.047 168.927 205.235C172.046 202.947 175.365 200.965 178.884 199.291C182.682 198.299 186.554 197.672 190.499 197.409C194.451 197.894 198.336 198.75 202.154 199.977C205.699 201.912 209.041 204.172 212.182 206.755C214.8 209.904 217.106 213.283 219.101 216.892C220.392 220.839 221.302 224.885 221.833 229.031C221.575 233.231 220.922 237.384 219.873 241.489" stroke="#00FF47" stroke-width="4"/>
<path d="M306.92 263.526C308.339 263.294 309.782 263.199 311.247 263.24C312.706 263.565 314.134 264.03 315.531 264.636C316.811 265.51 318.007 266.509 319.119 267.63C320.015 268.964 320.781 270.385 321.419 271.89C321.767 273.517 321.959 275.176 321.994 276.867C321.705 278.563 321.253 280.229 320.638 281.866C319.712 283.381 318.641 284.806 317.425 286.14C315.958 287.238 314.387 288.194 312.713 289.008C310.889 289.498 309.02 289.814 307.108 289.954C305.175 289.728 303.268 289.317 301.386 288.723C299.624 287.77 297.958 286.652 296.385 285.367C295.065 283.787 293.899 282.085 292.886 280.26C292.226 278.25 291.76 276.182 291.487 274.056C291.621 271.889 291.961 269.739 292.508 267.608C293.458 265.593 294.597 263.673 295.926 261.849C297.595 260.289 299.408 258.892 301.365 257.659C303.545 256.805 305.8 256.162 308.129 255.729C310.527 255.742 312.916 255.983 315.297 256.452C317.572 257.371 319.753 258.503 321.84 259.849C323.656 261.583 325.301 263.483 326.775 265.551C327.846 267.884 328.692 270.311 329.312 272.832C329.449 275.452 329.336 278.076 328.973 280.703C328.115 283.243 327.018 285.691 325.683 288.048C323.911 290.134 321.948 292.044 319.793 293.777C317.326 295.088 314.744 296.16 312.048 296.992C309.215 297.306 306.364 297.35 303.494 297.124C300.691 296.355 297.972 295.323 295.338 294.029C292.971 292.246 290.783 290.246 288.774 288.029C287.203 285.451 285.882 282.734 284.814 279.879C284.295 276.847 284.066 273.778 284.127 270.674C284.776 267.609 285.712 264.619 286.936 261.704C288.701 259.047 290.709 256.569 292.962 254.271C295.629 252.42 298.459 250.831 301.452 249.503C304.668 248.753 307.941 248.312 311.269 248.179C314.592 248.678 317.851 249.488 321.047 250.611C324 252.328 326.777 254.316 329.376 256.576C331.523 259.305 333.401 262.225 335.01 265.334C336.015 268.717 336.695 272.178 337.05 275.718C336.731 279.29 336.077 282.813 335.086 286.289C333.447 289.542 331.51 292.624 329.272 295.534C326.508 297.991 323.525 300.175 320.324 302.084C316.795 303.368 313.162 304.312 309.427 304.916C305.616 304.807 301.836 304.338 298.086 303.51C294.532 301.982 291.141 300.126 287.914 297.942C285.133 295.171 282.629 292.152 280.402 288.885C278.817 285.232 277.585 281.45 276.706 277.537C276.577 273.5 276.829 269.474 277.464 265.457C278.851 261.603 280.594 257.902 282.693 254.353C285.44 251.24 288.466 248.403 291.77 245.843C295.522 243.936 299.432 242.394 303.502 241.216" stroke="#FF0000" stroke-width="4"/>
</svg>
