<svg width="500" height="855" viewBox="0 0 500 855" fill="none" xmlns="http://www.w3.org/2000/svg">
<path d="M75 399H425V855L250 644.48L75 855V399Z" fill="#FFB5E1"/>
<path d="M115 375H105V385V735V762.566L122.674 741.412L250 589.013L377.326 741.412L395 762.566V735V385V375H385H115Z" stroke="#ED15BD" stroke-width="20"/>
<circle cx="250" cy="250" r="240" fill="#FFB5E1" stroke="#ED15BD" stroke-width="20"/>
<path d="M425 202C441.569 202 455 215.431 455 232L455 272C455 288.569 441.569 302 425 302V302L425 202V202Z" fill="#A1A1A1"/>
<path d="M75 302C58.4315 302 45 288.569 45 272V232C45 215.431 58.4315 202 75 202V202L75 302V302Z" fill="#A1A1A1"/>
<ellipse cx="250" cy="252" rx="185" ry="160" fill="#DCDCDC"/>
<path d="M150 137C150 109.386 172.386 87 200 87H300C327.614 87 350 109.386 350 137V175H150V137Z" fill="#A1A1A1"/>
<ellipse cx="250" cy="252" rx="150" ry="100" fill="#1D1D1D"/>
<path d="M220 238.743C220 226.183 210.357 216 198.462 216C190.574 216 183.676 220.478 179.924 227.157C176.139 220.626 169.321 216.268 161.538 216.268C149.643 216.268 140 226.45 140 239.011C140 244.604 141.912 249.726 145.084 253.687C155.338 265.532 163.343 275.109 179.866 295.334C191.256 279.702 198.911 270.78 214.699 253.687C218 249.69 220 244.463 220 238.743Z" fill="#FF0000"/>
<path d="M350 238.743C350 226.183 340.357 216 328.462 216C320.574 216 313.676 220.478 309.924 227.157C306.139 220.626 299.321 216.268 291.538 216.268C279.643 216.268 270 226.45 270 239.011C270 244.604 271.912 249.726 275.084 253.687C285.338 265.532 293.343 275.109 309.866 295.334C321.256 279.702 328.911 270.78 344.699 253.687C348 249.69 350 244.463 350 238.743Z" fill="#FF0000"/>
</svg>
