<svg width="500" height="855" viewBox="0 0 500 855" fill="none" xmlns="http://www.w3.org/2000/svg">
<path d="M75 399H425V855L250 644.48L75 855V399Z" fill="#FBFF4D"/>
<path d="M115 375H105V385V735V762.566L122.674 741.412L250 589.013L377.326 741.412L395 762.566V735V385V375H385H115Z" stroke="#FFC83C" stroke-width="20"/>
<circle cx="250" cy="250" r="240" fill="#FBFF4D" stroke="#FFC83C" stroke-width="20"/>
<path d="M425 200C441.569 200 455 213.431 455 230L455 270C455 286.569 441.569 300 425 300V300L425 200V200Z" fill="#A1A1A1"/>
<path d="M75 300C58.4315 300 45 286.569 45 270V230C45 213.431 58.4315 200 75 200V200L75 300V300Z" fill="#A1A1A1"/>
<ellipse cx="250" cy="250" rx="185" ry="160" fill="#DCDCDC"/>
<path d="M150 135C150 107.386 172.386 85 200 85H300C327.614 85 350 107.386 350 135V173H150V135Z" fill="#A1A1A1"/>
<ellipse cx="250" cy="250" rx="150" ry="100" fill="#1D1D1D"/>
<path d="M208.816 190.692C197.418 195.69 187.596 200.735 179.348 205.829C171.178 210.882 163.857 216.531 157.385 222.776C150.971 229.039 144.881 236.12 139.115 244.018C133.426 251.876 127.559 261.105 121.514 271.706L102.865 265.755C108.586 255.764 114.476 246.867 120.537 239.063C126.676 231.219 133.235 224.093 140.214 217.686C147.271 211.238 155.059 205.446 163.58 200.31C172.179 195.133 181.896 190.216 192.731 185.559L147.126 171.005L136.795 189.035L120.444 183.817L139.496 150.36L217.538 175.265L208.816 190.692ZM276.516 278.518C273.474 283.779 269.513 288.358 264.634 292.255C259.755 296.151 254.366 299.203 248.468 301.411C242.588 303.56 236.511 304.802 230.237 305.137C223.962 305.471 217.968 304.727 212.252 302.903C206.714 301.135 202.027 298.731 198.194 295.69C194.419 292.667 191.547 289.154 189.579 285.15C187.67 281.165 186.811 276.736 187.003 271.863C187.136 266.971 188.565 261.779 191.292 256.287L209.963 259.421C207.013 265.816 206.324 271.536 207.895 276.582C209.484 281.569 213.903 285.219 221.15 287.532C224.921 288.735 228.566 289.217 232.083 288.976C235.62 288.676 239.003 287.841 242.232 286.469C245.461 285.098 248.4 283.211 251.049 280.811C253.698 278.41 255.912 275.643 257.691 272.51C261.863 265.337 263.074 259.101 261.324 253.803C259.632 248.524 255.546 244.851 249.065 242.782C244.822 241.428 240.445 241.005 235.934 241.513C231.481 242.04 227.181 243.816 223.034 246.843L204.739 241.004L238.308 181.893L310.516 204.937L301.883 220.393L247.881 203.159L231.896 230.973C241.124 226.063 250.923 225.262 261.293 228.571C266.243 230.151 270.44 232.562 273.885 235.803C277.349 238.986 279.842 242.768 281.365 247.15C282.908 251.472 283.312 256.308 282.579 261.658C281.845 267.007 279.825 272.627 276.516 278.518ZM414.867 242.913L279.975 326.268L272.205 315.219L407.414 231.478L414.867 242.913ZM319.704 230.462C321.311 227.664 323.44 225.162 326.092 222.957C328.821 220.712 331.704 219.002 334.74 217.829C337.795 216.597 340.984 215.861 344.306 215.623C347.647 215.326 350.908 215.685 354.09 216.7C357.095 217.659 359.667 219.162 361.805 221.208C363.963 223.195 365.488 225.434 366.381 227.926C367.351 230.378 367.679 233.113 367.366 236.129C367.13 239.105 366.209 241.992 364.602 244.79C362.898 247.688 360.73 250.209 358.098 252.356C355.524 254.521 352.71 256.219 349.654 257.452C346.599 258.684 343.342 259.43 339.884 259.69C336.503 259.909 333.31 259.539 330.305 258.58C327.182 257.584 324.571 256.101 322.472 254.133C320.393 252.106 318.877 249.837 317.925 247.326C317.033 244.834 316.665 242.12 316.823 239.184C317.04 236.266 318 233.359 319.704 230.462ZM333.018 234.516C331.738 236.899 331.484 239.22 332.256 241.479C333.106 243.698 334.798 245.212 337.332 246.021C339.865 246.829 342.534 246.707 345.337 245.654C348.159 244.542 350.21 242.794 351.489 240.411C352.887 238.065 353.141 235.744 352.251 233.448C351.42 231.17 349.737 229.627 347.204 228.818C344.67 228.01 342.022 228.171 339.259 229.301C336.496 230.432 334.415 232.171 333.018 234.516ZM322.381 313.313C324.007 310.456 326.146 307.925 328.797 305.72C331.508 303.533 334.381 301.853 337.417 300.68C340.472 299.448 343.661 298.712 346.983 298.474C350.324 298.177 353.585 298.536 356.767 299.551C359.772 300.51 362.344 302.013 364.483 304.059C366.64 306.046 368.165 308.285 369.058 310.777C370.028 313.229 370.366 315.934 370.072 318.892C369.836 321.868 368.905 324.784 367.279 327.641C365.576 330.539 363.378 333.051 360.687 335.178C358.054 337.325 355.21 339.014 352.155 340.246C349.1 341.479 345.852 342.195 342.412 342.396C339.013 342.674 335.81 342.334 332.805 341.375C329.682 340.378 327.081 338.867 325.001 336.839C322.903 334.871 321.377 332.632 320.426 330.121C319.533 327.628 319.195 324.924 319.412 322.006C319.688 319.108 320.678 316.21 322.381 313.313ZM335.695 317.367C334.297 319.713 334.014 322.024 334.845 324.302C335.754 326.54 337.475 328.063 340.009 328.872C342.543 329.68 345.182 329.549 347.926 328.477C350.689 327.346 352.769 325.608 354.167 323.262C355.447 320.879 355.671 318.548 354.84 316.27C354.068 314.011 352.415 312.478 349.881 311.669C347.347 310.861 344.67 311.012 341.848 312.124C339.026 313.236 336.975 314.984 335.695 317.367Z" fill="#00C236"/>
</svg>
