<svg width="500" height="855" viewBox="0 0 500 855" fill="none" xmlns="http://www.w3.org/2000/svg">
<path d="M75 399H425V855L250 644.48L75 855V399Z" fill="#92FF6B"/>
<path d="M115 375H105V385V735V762.566L122.674 741.412L250 589.013L377.326 741.412L395 762.566V735V385V375H385H115Z" stroke="#0FC100" stroke-width="20"/>
<circle cx="250" cy="250" r="240" fill="#92FF6B" stroke="#0FC100" stroke-width="20"/>
<path d="M276 490C264.336 373.652 224.433 383.501 181.46 364.418C147.082 349.151 146.672 294.445 150.765 269" stroke="#0FC100" stroke-width="10"/>
<ellipse cx="250" cy="208" rx="175" ry="115" fill="#0FC100"/>
<path d="M340.004 175.683C353.297 177.551 362.559 189.842 360.69 203.135V203.135C358.822 216.428 346.532 225.689 333.239 223.821L261.693 213.766L268.459 165.628L340.004 175.683Z" fill="#DCDCDC"/>
<rect x="261.757" y="212.969" width="48.6111" height="60.7639" transform="rotate(8 261.757 212.969)" fill="#DCDCDC"/>
<rect x="260.553" y="213.799" width="51.0417" height="6.07639" rx="3.03819" transform="rotate(8 260.553 213.799)" fill="#FF0000"/>
<rect x="257.847" y="233.055" width="51.0417" height="6.07639" rx="3.03819" transform="rotate(8 257.847 233.055)" fill="#FF0000"/>
<path d="M371.528 299.91L359.951 279.858H383.105L371.528 299.91Z" fill="#DCDCDC"/>
<path d="M344.792 299.91L333.215 279.858H356.369L344.792 299.91Z" fill="#DCDCDC"/>
<path d="M318.056 299.91L306.479 279.858H329.633L318.056 299.91Z" fill="#DCDCDC"/>
<path d="M288.842 299.85L279.21 278.794L302.261 280.981L288.842 299.85Z" fill="#DCDCDC"/>
<path d="M256.977 293.657L249.998 271.58L272.607 276.574L256.977 293.657Z" fill="#DCDCDC"/>
<path d="M230.241 287.58L223.262 265.503L245.871 270.498L230.241 287.58Z" fill="#DCDCDC"/>
<path d="M201.297 276.592L200.549 253.45L220.965 264.373L201.297 276.592Z" fill="#DCDCDC"/>
<path d="M177.689 258.634L182.585 236.004L199.736 251.559L177.689 258.634Z" fill="#DCDCDC"/>
<path d="M160.13 234.41L171.569 214.279L183.284 234.251L160.13 234.41Z" fill="#DCDCDC"/>
<path d="M150.683 204.214L168.011 188.856L172.647 211.541L150.683 204.214Z" fill="#DCDCDC"/>
<path d="M384.896 278.642C164.323 291.403 171.007 213.017 171.007 176.559" stroke="#FF0000" stroke-width="5" stroke-linecap="round"/>
</svg>
