<svg width="500" height="855" viewBox="0 0 500 855" fill="none" xmlns="http://www.w3.org/2000/svg">
<path d="M75 399H425V855L250 644.48L75 855V399Z" fill="#1407A0"/>
<path d="M115 375H105V385V735V762.566L122.674 741.412L250 589.013L377.326 741.412L395 762.566V735V385V375H385H115Z" stroke="#2703FF" stroke-width="20"/>
<circle cx="250" cy="250" r="240" fill="#1407A0" stroke="#2703FF" stroke-width="20"/>
<path d="M136 90L139.247 101.377L150.722 98.5L142.493 107L150.722 115.5L139.247 112.623L136 124L132.753 112.623L121.278 115.5L129.507 107L121.278 98.5L132.753 101.377L136 90Z" fill="#FCFF6B"/>
<path d="M103 323L106.247 334.377L117.722 331.5L109.493 340L117.722 348.5L106.247 345.623L103 357L99.7533 345.623L88.2776 348.5L96.5066 340L88.2776 331.5L99.7533 334.377L103 323Z" fill="#FCFF6B"/>
<path d="M267 381L270.247 392.377L281.722 389.5L273.493 398L281.722 406.5L270.247 403.623L267 415L263.753 403.623L252.278 406.5L260.507 398L252.278 389.5L263.753 392.377L267 381Z" fill="#FCFF6B"/>
<path d="M425 264L428.247 275.377L439.722 272.5L431.493 281L439.722 289.5L428.247 286.623L425 298L421.753 286.623L410.278 289.5L418.507 281L410.278 272.5L421.753 275.377L425 264Z" fill="#FCFF6B"/>
<path d="M353 73L356.247 84.3765L367.722 81.5L359.493 90L367.722 98.5L356.247 95.6235L353 107L349.753 95.6235L338.278 98.5L346.507 90L338.278 81.5L349.753 84.3765L353 73Z" fill="#FCFF6B"/>
<path d="M69 182L73.5915 194.408L86 199L73.5915 203.592L69 216L64.4085 203.592L52 199L64.4085 194.408L69 182Z" fill="#FCFF6B"/>
<path d="M384 205L388.592 217.408L401 222L388.592 226.592L384 239L379.408 226.592L367 222L379.408 217.408L384 205Z" fill="#FCFF6B"/>
<path d="M236 80L240.592 92.4085L253 97L240.592 101.592L236 114L231.408 101.592L219 97L231.408 92.4085L236 80Z" fill="#FCFF6B"/>
<path d="M375 340L379.592 352.408L392 357L379.592 361.592L375 374L370.408 361.592L358 357L370.408 352.408L375 340Z" fill="#FCFF6B"/>
<path d="M164 408L168.592 420.408L181 425L168.592 429.592L164 442L159.408 429.592L147 425L159.408 420.408L164 408Z" fill="#FCFF6B"/>
<line x1="281.211" y1="148.491" x2="291.73" y2="113.534" stroke="#FF6969" stroke-width="5"/>
<line x1="203.283" y1="363.662" x2="212.077" y2="327.244" stroke="#FF6969" stroke-width="5"/>
<line x1="307" y1="261.664" x2="367.304" y2="281.484" stroke="#FF6969" stroke-width="5"/>
<line x1="126.125" y1="192.297" x2="168.321" y2="206.901" stroke="#FF6969" stroke-width="5"/>
<line x1="115.286" y1="299.27" x2="175.507" y2="265.349" stroke="#FF6969" stroke-width="5"/>
<path d="M322.861 205.365L405.47 174.558" stroke="#FF6969" stroke-width="5"/>
<path d="M176.817 72.7955L218.91 166.471" stroke="#FF6969" stroke-width="5"/>
<line x1="285.732" y1="321.492" x2="338.498" y2="406.922" stroke="#FF6969" stroke-width="5"/>
<path d="M245.318 129.336L262.521 199.777L323.15 160.001L285.505 221.975L356.502 236.721L286.06 253.924L325.836 314.553L263.862 276.908L249.116 347.904L231.913 277.463L171.285 317.239L208.929 255.264L137.933 240.519L208.374 223.316L168.599 162.687L230.573 200.332L245.318 129.336Z" fill="#FF6969"/>
<path d="M246.322 187.118L254.429 220.315L283.002 201.57L265.261 230.776L298.719 237.725L265.523 245.832L284.267 274.404L255.061 256.664L248.112 290.122L240.005 256.925L211.433 275.67L229.173 246.464L195.715 239.515L228.912 231.408L210.167 202.836L239.373 220.576L246.322 187.118Z" fill="#FF4040"/>
</svg>
